HIERARCHY
ROOT Hips
{
    OFFSET 0.000000 0.000000 0.000000
    CHANNELS 6 Xposition Yposition Zposition Zrotation Yrotation Xrotation
    JOINT Chest
    {
        OFFSET 0.000000 1.634758 -0.000000
        CHANNELS 3 Zrotation Yrotation Xrotation
        JOINT Chest2
        {
            OFFSET 0.000000 2.197341 0.000000
            CHANNELS 3 Zrotation Yrotation Xrotation
            JOINT Neck
            {
                OFFSET 0.000000 0.961544 0.000000
                CHANNELS 3 Zrotation Yrotation Xrotation
                JOINT Head
                {
                    OFFSET 0.000000 0.632542 -0.032565
                    CHANNELS 3 Zrotation Yrotation Xrotation
                    End Site
                    {
                        OFFSET -0.000001 0.439502 2.922845
                    }
                }
            }
            JOINT LeftCollar
            {
                OFFSET 0.167536 0.778237 -0.168280
                CHANNELS 3 Zrotation Yrotation Xrotation
                JOINT LeftShoulder
                {
                    OFFSET 0.831514 -0.002900 0.006458
                    CHANNELS 3 Zrotation Yrotation Xrotation
                    JOINT LeftElbow
                    {
                        OFFSET 2.272872 -0.026639 0.059314
                        CHANNELS 3 Zrotation Yrotation Xrotation
                        JOINT LeftWrist
                        {
                            OFFSET 2.081982 -0.024402 0.054333
                            CHANNELS 3 Zrotation Yrotation Xrotation
                            JOINT LeftHandThumb1
                            {
                                OFFSET 0.218903 -0.128645 0.283837
                                CHANNELS 3 Zrotation Yrotation Xrotation
                                JOINT LeftHandThumb2
                                {
                                    OFFSET 0.137157 -0.025101 0.077902
                                    CHANNELS 3 Zrotation Yrotation Xrotation
                                    JOINT LeftHandThumb3
                                    {
                                        OFFSET 0.168595 -0.067221 0.024422
                                        CHANNELS 3 Zrotation Yrotation Xrotation
                                        End Site
                                        {
                                            OFFSET 0.252337 -0.084569 0.031795
                                        }
                                    }
                                }
                            }
                            JOINT LeftHandFore1
                            {
                                OFFSET 0.767340 -0.016076 0.196678
                                CHANNELS 3 Zrotation Yrotation Xrotation
                                JOINT LeftHandFore2
                                {
                                    OFFSET 0.179787 -0.120935 0.006845
                                    CHANNELS 3 Zrotation Yrotation Xrotation
                                    JOINT LeftHandFore3
                                    {
                                        OFFSET 0.061887 -0.113547 -0.006313
                                        CHANNELS 3 Zrotation Yrotation Xrotation
                                        End Site
                                        {
                                            OFFSET 0.017209 -0.192397 -0.007339
                                        }
                                    }
                                }
                            }
                            JOINT LeftHandMiddle1
                            {
                                OFFSET 0.709887 -0.008320 0.018526
                                CHANNELS 3 Zrotation Yrotation Xrotation
                                JOINT LeftHandMiddle2
                                {
                                    OFFSET 0.209082 -0.127858 0.000980
                                    CHANNELS 3 Zrotation Yrotation Xrotation
                                    JOINT LeftHandMiddle3
                                    {
                                        OFFSET 0.082275 -0.120571 -0.008749
                                        CHANNELS 3 Zrotation Yrotation Xrotation
                                        End Site
                                        {
                                            OFFSET 0.033303 -0.233203 -0.011720
                                        }
                                    }
                                }
                            }
                            JOINT LeftHandRing1
                            {
                                OFFSET 0.743817 -0.005823 -0.153668
                                CHANNELS 3 Zrotation Yrotation Xrotation
                                JOINT LeftHandRing2
                                {
                                    OFFSET 0.297971 -0.188845 -0.016849
                                    CHANNELS 3 Zrotation Yrotation Xrotation
                                    JOINT LeftHandRing3
                                    {
                                        OFFSET 0.071002 -0.115551 -0.014574
                                        CHANNELS 3 Zrotation Yrotation Xrotation
                                        End Site
                                        {
                                            OFFSET 0.007705 -0.119045 -0.013731
                                        }
                                    }
                                }
                            }
                            JOINT LeftHandLittle1
                            {
                                OFFSET 0.689408 -0.053302 -0.308304
                                CHANNELS 3 Zrotation Yrotation Xrotation
                                JOINT LeftHandLittle2
                                {
                                    OFFSET 0.167334 -0.098405 -0.019240
                                    CHANNELS 3 Zrotation Yrotation Xrotation
                                    JOINT LeftHandLittle3
                                    {
                                        OFFSET 0.057888 -0.103633 -0.020134
                                        CHANNELS 3 Zrotation Yrotation Xrotation
                                        End Site
                                        {
                                            OFFSET 0.032557 -0.183078 -0.041367
                                        }
                                    }
                                }
                            }
                        }
                    }
                }
            }
            JOINT RightCollar
            {
                OFFSET -0.167536 0.778237 -0.168280
                CHANNELS 3 Zrotation Yrotation Xrotation
                JOINT RightShoulder
                {
                    OFFSET -0.831514 -0.002900 0.006457
                    CHANNELS 3 Zrotation Yrotation Xrotation
                    JOINT RightElbow
                    {
                        OFFSET -2.272872 -0.026639 0.059313
                        CHANNELS 3 Zrotation Yrotation Xrotation
                        JOINT RightWrist
                        {
                            OFFSET -2.081982 -0.024402 0.054331
                            CHANNELS 3 Zrotation Yrotation Xrotation
                            JOINT RightHandThumb1
                            {
                                OFFSET -0.218911 -0.128571 0.283837
                                CHANNELS 3 Zrotation Yrotation Xrotation
                                JOINT RightHandThumb2
                                {
                                    OFFSET -0.137157 -0.025101 0.077902
                                    CHANNELS 3 Zrotation Yrotation Xrotation
                                    JOINT RightHandThumb3
                                    {
                                        OFFSET -0.161447 -0.079946 0.032909
                                        CHANNELS 3 Zrotation Yrotation Xrotation
                                        End Site
                                        {
                                            OFFSET -0.229400 -0.125438 0.058970
                                        }
                                    }
                                }
                            }
                            JOINT RightHandFore1
                            {
                                OFFSET -0.767344 -0.015991 0.196679
                                CHANNELS 3 Zrotation Yrotation Xrotation
                                JOINT RightHandFore2
                                {
                                    OFFSET -0.179817 -0.120896 0.006842
                                    CHANNELS 3 Zrotation Yrotation Xrotation
                                    JOINT RightHandFore3
                                    {
                                        OFFSET -0.061466 -0.113009 0.014589
                                        CHANNELS 3 Zrotation Yrotation Xrotation
                                        End Site
                                        {
                                            OFFSET -0.016693 -0.191773 0.017638
                                        }
                                    }
                                }
                            }
                            JOINT RightHandMiddle1
                            {
                                OFFSET -0.709887 -0.008302 0.018525
                                CHANNELS 3 Zrotation Yrotation Xrotation
                                JOINT RightHandMiddle2
                                {
                                    OFFSET -0.209066 -0.127876 0.000983
                                    CHANNELS 3 Zrotation Yrotation Xrotation
                                    JOINT RightHandMiddle3
                                    {
                                        OFFSET -0.082620 -0.119828 0.014125
                                        CHANNELS 3 Zrotation Yrotation Xrotation
                                        End Site
                                        {
                                            OFFSET -0.033889 -0.231958 0.026022
                                        }
                                    }
                                }
                            }
                            JOINT RightHandRing1
                            {
                                OFFSET -0.743819 -0.005785 -0.153669
                                CHANNELS 3 Zrotation Yrotation Xrotation
                                JOINT RightHandRing2
                                {
                                    OFFSET -0.297985 -0.188824 -0.016848
                                    CHANNELS 3 Zrotation Yrotation Xrotation
                                    JOINT RightHandRing3
                                    {
                                        OFFSET -0.071368 -0.116240 -0.000080
                                        CHANNELS 3 Zrotation Yrotation Xrotation
                                        End Site
                                        {
                                            OFFSET -0.008111 -0.119791 0.002161
                                        }
                                    }
                                }
                            }
                            JOINT RightHandLittle1
                            {
                                OFFSET -0.689403 -0.053298 -0.308303
                                CHANNELS 3 Zrotation Yrotation Xrotation
                                JOINT RightHandLittle2
                                {
                                    OFFSET -0.167339 -0.098401 -0.019241
                                    CHANNELS 3 Zrotation Yrotation Xrotation
                                    JOINT RightHandLittle3
                                    {
                                        OFFSET -0.058684 -0.104918 -0.006631
                                        CHANNELS 3 Zrotation Yrotation Xrotation
                                        End Site
                                        {
                                            OFFSET -0.035078 -0.187227 0.002041
                                        }
                                    }
                                }
                            }
                        }
                    }
                }
            }
        }
    }
    JOINT LeftHip
    {
        OFFSET 0.685143 0.673822 -0.044491
        CHANNELS 3 Zrotation Yrotation Xrotation
        JOINT LeftKnee
        {
            OFFSET 0.085364 -3.750208 0.017676
            CHANNELS 3 Zrotation Yrotation Xrotation
            JOINT LeftAnkle
            {
                OFFSET 0.094583 -4.155206 0.019585
                CHANNELS 3 Zrotation Yrotation Xrotation
                JOINT LeftToe
                {
                    OFFSET -0.000000 -0.395925 0.621478
                    CHANNELS 3 Zrotation Yrotation Xrotation
                    End Site
                    {
                        OFFSET -0.000000 -0.077878 0.321152
                    }
                }
            }
        }
    }
    JOINT RightHip
    {
        OFFSET -0.685143 0.673822 -0.044492
        CHANNELS 3 Zrotation Yrotation Xrotation
        JOINT RightKnee
        {
            OFFSET -0.085364 -3.750208 0.017677
            CHANNELS 3 Zrotation Yrotation Xrotation
            JOINT RightAnkle
            {
                OFFSET -0.094583 -4.155206 0.019585
                CHANNELS 3 Zrotation Yrotation Xrotation
                JOINT RightToe
                {
                    OFFSET -0.000000 -0.395925 0.621478
                    CHANNELS 3 Zrotation Yrotation Xrotation
                    End Site
                    {
                        OFFSET -0.000000 -0.077878 0.321152
                    }
                }
            }
        }
    }
}
MOTION
Frames: 7
Frame Time: 0.033333
-0.249087 8.957989 -0.091382 8.805639 -80.769485 -9.288001 -2.201293 -10.293344 -3.162152 -0.101524 1.593237 -3.646679 0.000003 -1.596464 4.684102 0.000004 0.000004 11.067137 -14.344187 0.192382 0.401726 -58.762829 14.577068 -0.908471 0.037001 -18.898571 -0.229655 -2.512954 6.652991 1.296152 -0.000002 0.000006 0.000002 0.000001 0.000003 0.000001 -0.000004 -0.000001 0.000000 -0.000003 0.000000 -0.000000 0.000000 -0.000001 -0.000000 -0.000001 0.000000 0.000000 0.000003 -0.000000 0.000000 0.000000 0.000001 -0.000000 0.000003 -0.000001 0.000000 0.000003 -0.000000 -0.000000 0.000005 0.000001 0.000000 0.000003 -0.000002 0.000001 -0.000001 -0.000000 0.000000 -0.000002 0.000001 -0.000000 -0.000001 -0.000001 0.000001 14.394302 -3.097955 -0.391564 58.769646 -13.740787 -0.702688 -0.035178 18.453539 -0.223856 2.437502 -7.118682 0.919457 -0.000002 -0.000001 0.000008 0.000002 0.000001 -0.000001 0.000002 0.000002 -0.000007 -0.000005 0.000000 -0.000000 0.000002 -0.000001 0.000001 -0.000003 0.000001 0.000000 -0.000002 -0.000001 -0.000000 0.000007 -0.000000 0.000001 0.000002 -0.000000 -0.000000 -0.000003 0.000000 -0.000000 0.000003 0.000000 0.000001 0.000003 -0.000001 0.000000 0.000002 -0.000000 -0.000000 -0.000005 0.000001 0.000001 0.000003 -0.000000 0.000000 -4.293645 0.150798 -0.159117 0.061741 0.396496 17.699282 -0.861226 -2.487203 -22.102661 -0.000000 -0.000003 -0.000002 -8.302192 0.488333 5.650568 -0.011734 -0.174582 7.692866 -3.363734 -5.293929 -13.828152 0.000002 0.000006 0.000002
-0.249172 8.957963 -0.091086 8.805638 -80.769508 -9.287998 -2.201100 -10.293272 -3.163662 -0.101373 1.593207 -3.648161 -0.000094 -1.596787 4.684690 0.000039 -0.000685 11.068247 -14.343319 0.193009 0.401697 -58.763458 14.596861 -0.909095 0.037146 -18.935350 -0.230135 -2.513071 6.652990 1.296141 0.000009 -0.000001 -0.000012 -0.000003 -0.000001 -0.000004 -0.000002 0.000001 0.000004 -0.000005 0.000000 -0.000002 0.000003 -0.000001 -0.000000 0.000000 0.000000 0.000000 0.000007 0.000001 -0.000001 0.000003 0.000001 -0.000001 0.000002 -0.000001 0.000000 0.000002 0.000002 -0.000000 0.000003 0.000001 0.000000 0.000002 -0.000001 0.000000 0.000000 0.000003 0.000001 -0.000003 0.000001 0.000000 0.000000 -0.000001 0.000001 14.394086 -3.099211 -0.391544 58.769058 -13.746109 -0.703867 -0.035184 18.455730 -0.223885 2.437005 -7.118789 0.919503 0.000003 0.000003 0.000001 0.000003 0.000004 0.000000 0.000002 -0.000004 -0.000009 0.000000 -0.000003 0.000004 0.000002 0.000000 0.000000 0.000000 -0.000001 0.000000 0.000019 -0.000004 0.000005 0.000002 0.000001 -0.000000 0.000003 -0.000000 0.000000 0.000009 -0.000005 0.000005 0.000002 0.000000 0.000000 0.000002 -0.000001 0.000000 0.000020 -0.000005 0.000004 0.000000 0.000000 0.000001 0.000003 0.000000 -0.000000 -4.296313 0.150751 -0.158202 0.061749 0.396520 17.700325 -0.858838 -2.487033 -22.105030 -0.000001 -0.000003 -0.000003 -8.302150 0.488278 5.656883 -0.011701 -0.174337 7.681901 -3.362801 -5.294118 -13.823829 0.000002 0.000005 0.000001
-0.249424 8.957886 -0.090211 8.805640 -80.769501 -9.288001 -2.200544 -10.293094 -3.168100 -0.100931 1.593122 -3.652580 -0.000383 -1.597758 4.686434 0.000146 -0.002739 11.071549 -14.340964 0.194884 0.401612 -58.765064 14.654884 -0.910939 0.037602 -19.043037 -0.231546 -2.513416 6.652991 1.296110 0.000012 -0.000008 -0.000001 0.000001 -0.000002 -0.000002 -0.000002 -0.000000 -0.000001 -0.000003 0.000001 0.000002 0.000002 -0.000000 -0.000000 -0.000002 -0.000000 0.000000 0.000008 0.000002 0.000002 0.000003 0.000001 0.000000 0.000000 0.000001 0.000000 0.000009 0.000002 0.000004 0.000003 0.000001 -0.000000 -0.000002 -0.000002 0.000000 0.000007 0.000003 0.000005 -0.000003 0.000001 -0.000000 -0.000003 -0.000001 0.000001 14.393371 -3.102920 -0.391484 58.767433 -13.761473 -0.707361 -0.035206 18.461370 -0.223957 2.435502 -7.119100 0.919641 0.000002 0.000008 -0.000002 0.000000 0.000004 0.000001 0.000002 -0.000000 -0.000003 0.000002 -0.000000 0.000000 -0.000003 -0.000000 -0.000001 -0.000002 0.000001 0.000001 0.000002 -0.000002 -0.000001 0.000002 -0.000001 0.000001 0.000000 -0.000001 0.000001 0.000005 -0.000003 -0.000000 0.000005 0.000000 0.000000 -0.000005 -0.000000 -0.000001 0.000005 -0.000002 0.000000 0.000005 -0.000001 0.000000 -0.000003 0.000001 -0.000000 -4.304201 0.150622 -0.155570 0.061771 0.396587 17.703533 -0.851742 -2.486613 -22.112072 -0.000000 -0.000001 -0.000003 -8.302016 0.488162 5.674657 -0.011607 -0.173644 7.651229 -3.359990 -5.294801 -13.811890 -0.000001 -0.000004 0.000003
-0.249836 8.957760 -0.088780 8.805638 -80.769508 -9.287998 -2.199630 -10.292810 -3.175370 -0.100205 1.592985 -3.659802 -0.000862 -1.599340 4.689281 0.000318 -0.006089 11.076957 -14.336999 0.197940 0.401472 -58.767815 14.749501 -0.913990 0.038355 -19.218534 -0.233846 -2.513992 6.652991 1.296059 0.000005 -0.000000 0.000002 -0.000002 -0.000000 -0.000000 0.000000 -0.000000 0.000000 -0.000003 0.000004 -0.000001 0.000004 -0.000001 -0.000000 0.000001 0.000000 -0.000000 -0.000002 0.000003 0.000000 -0.000001 0.000001 0.000001 0.000001 -0.000001 0.000000 0.000008 0.000004 0.000001 0.000000 0.000001 0.000000 0.000003 -0.000002 0.000000 0.000009 0.000004 0.000002 0.000002 0.000002 0.000000 -0.000001 -0.000000 0.000000 14.392330 -3.108994 -0.391388 58.764584 -13.786915 -0.713029 -0.035237 18.471350 -0.224088 2.433013 -7.119612 0.919870 -0.000005 -0.000006 0.000001 0.000000 0.000003 -0.000001 0.000002 -0.000002 -0.000005 -0.000009 0.000002 0.000004 0.000000 -0.000000 0.000001 0.000000 0.000000 -0.000001 -0.000002 -0.000000 0.000005 0.000002 0.000001 0.000000 0.000005 -0.000002 -0.000000 0.000002 -0.000002 0.000004 0.000003 0.000001 0.000000 0.000000 -0.000000 -0.000000 0.000009 -0.000001 0.000005 0.000003 -0.000000 0.000000 -0.000003 0.000000 0.000000 -4.317138 0.150411 -0.151186 0.061806 0.396700 17.708670 -0.840093 -2.485896 -22.123531 -0.000000 -0.000001 0.000004 -8.301786 0.487942 5.704164 -0.011453 -0.172494 7.600239 -3.355471 -5.295873 -13.791977 0.000002 0.000002 0.000005
-0.250403 8.957586 -0.086812 8.805638 -80.769508 -9.287999 -2.198374 -10.292423 -3.185355 -0.099210 1.592797 -3.669747 -0.001529 -1.601517 4.693197 0.000555 -0.010694 11.084391 -14.331564 0.202141 0.401277 -58.771553 14.878794 -0.918197 0.039382 -19.458172 -0.236994 -2.514790 6.652991 1.295986 0.000003 -0.000006 -0.000003 0.000000 -0.000003 -0.000002 0.000000 0.000001 0.000002 -0.000015 0.000005 0.000000 -0.000003 -0.000001 -0.000001 -0.000003 0.000000 0.000000 -0.000009 0.000004 -0.000000 0.000003 0.000001 -0.000000 0.000003 -0.000002 0.000001 0.000001 0.000006 0.000001 0.000004 0.000000 -0.000000 -0.000003 -0.000000 0.000001 -0.000003 0.000006 0.000003 -0.000003 0.000002 0.000000 -0.000001 -0.000001 -0.000000 14.390802 -3.117318 -0.391256 58.760822 -13.821487 -0.720815 -0.035294 18.484295 -0.224256 2.429548 -7.120322 0.920189 0.000002 -0.000001 0.000002 0.000000 0.000003 -0.000002 -0.000002 -0.000001 -0.000002 -0.000003 0.000003 0.000002 0.000009 -0.000000 0.000000 0.000002 0.000000 -0.000001 0.000010 0.000001 0.000002 -0.000002 0.000001 0.000001 0.000003 -0.000001 0.000000 0.000003 -0.000000 0.000003 0.000000 0.000000 -0.000000 0.000003 -0.000000 0.000000 0.000009 0.000001 0.000002 0.000005 0.000000 0.000001 -0.000002 0.000001 -0.000001 -4.334959 0.150110 -0.145123 0.061854 0.396852 17.715683 -0.824039 -2.484874 -22.139246 0.000000 -0.000003 -0.000002 -8.301448 0.487664 5.744550 -0.011246 -0.170920 7.530491 -3.349298 -5.297390 -13.764764 0.000003 0.000004 0.000005
-0.251119 8.957367 -0.084330 8.805638 -80.769508 -9.287999 -2.196789 -10.291933 -3.197956 -0.097956 1.592562 -3.682272 -0.002383 -1.604265 4.698135 0.000854 -0.016504 11.093757 -14.324691 0.207435 0.401032 -58.776253 15.040516 -0.923528 0.040680 -19.757595 -0.240941 -2.515810 6.652989 1.295895 0.000009 -0.000003 -0.000003 -0.000001 -0.000002 -0.000002 0.000001 0.000000 -0.000001 -0.000003 -0.000001 -0.000003 -0.000003 0.000001 0.000000 -0.000003 -0.000001 -0.000000 -0.000003 0.000001 -0.000003 0.000004 0.000000 -0.000000 0.000002 -0.000001 0.000000 0.000003 0.000001 -0.000001 0.000007 0.000000 0.000000 -0.000003 -0.000001 -0.000000 0.000003 0.000003 0.000001 0.000000 0.000001 -0.000001 0.000000 -0.000000 0.000000 14.388912 -3.127802 -0.391093 58.755978 -13.865068 -0.730581 -0.035369 18.500729 -0.224466 2.425116 -7.121223 0.920597 0.000005 0.000002 0.000003 0.000002 0.000000 0.000003 0.000000 -0.000002 -0.000005 -0.000005 0.000001 0.000000 -0.000005 0.000001 0.000001 0.000002 -0.000001 0.000000 0.000009 0.000000 0.000000 0.000003 -0.000001 -0.000000 0.000007 0.000001 0.000000 0.000002 -0.000001 0.000001 0.000002 0.000001 0.000001 -0.000002 -0.000001 -0.000001 0.000005 -0.000002 0.000001 -0.000003 -0.000000 0.000001 -0.000003 0.000000 0.000000 -4.357492 0.149724 -0.137630 0.061919 0.397051 17.724848 -0.803701 -2.483557 -22.159187 0.000000 -0.000001 -0.000003 -8.300995 0.487317 5.795399 -0.010984 -0.168939 7.442699 -3.341581 -5.299306 -13.730531 -0.000001 -0.000001 -0.000002
-0.251979 8.957105 -0.081353 8.805638 -80.769508 -9.287999 -2.194890 -10.291355 -3.213063 -0.096451 1.592281 -3.697299 -0.003421 -1.607556 4.704051 0.001212 -0.023465 11.104983 -14.316370 0.213766 0.400739 -58.781925 15.232459 -0.929950 0.042255 -20.112495 -0.245638 -2.517047 6.652987 1.295782 0.000009 0.000006 0.000002 0.000001 0.000001 0.000000 -0.000002 -0.000001 -0.000000 -0.000002 0.000002 0.000000 0.000000 -0.000000 -0.000000 -0.000002 -0.000000 -0.000000 0.000003 0.000002 0.000001 -0.000003 0.000000 -0.000001 0.000002 0.000000 0.000000 0.000009 0.000003 0.000001 0.000007 0.000000 0.000000 -0.000003 -0.000000 0.000001 0.000003 0.000005 0.000001 -0.000004 0.000001 -0.000001 0.000001 -0.000000 0.000001 14.386646 -3.140348 -0.390894 58.750153 -13.917110 -0.742230 -0.035447 18.520168 -0.224722 2.419727 -7.122313 0.921095 -0.000005 -0.000002 0.000007 -0.000002 -0.000000 0.000003 0.000000 -0.000000 -0.000003 -0.000010 0.000000 0.000001 0.000000 0.000001 0.000000 -0.000007 0.000001 -0.000000 0.000009 -0.000001 0.000001 0.000003 -0.000000 0.000000 0.000009 -0.000000 0.000000 -0.000003 -0.000001 0.000002 0.000000 0.000000 -0.000000 0.000002 -0.000001 0.000000 0.000002 -0.000002 0.000001 0.000000 0.000000 0.000000 0.000000 -0.000000 -0.000001 -4.384571 0.149250 -0.128361 0.061991 0.397277 17.735346 -0.779246 -2.481905 -22.182829 -0.000001 -0.000001 0.000004 -8.300422 0.486884 5.857165 -0.010671 -0.166529 7.335926 -3.332500 -5.301591 -13.688751 0.000000 0.000003 0.000002
